<svg width="1000" height="600" viewBox="0 0 1440 1024" fill="none" xmlns="http://www.w3.org/2000/svg">
<g clip-path="url(#clip0_45_649)">
<rect width="1440" height="1024" fill="#F6F7F9"/>
<ellipse cx="23.6709" cy="33.0585" rx="23.6709" ry="33.0585" transform="matrix(0.358892 -0.933379 0.965424 0.260684 -8.04736 1032.12)" fill="#E93736"/>
<path d="M66.7195 950.252L106.252 939.66L96.346 970.798L66.7195 950.252Z" stroke="#FABC05" stroke-width="7"/>
<path d="M123.406 924.976L170.602 912.33L158.775 949.505L123.406 924.976Z" stroke="#109D58" stroke-width="3"/>
<path d="M302.726 1000.72L349.922 988.077L338.095 1025.25L302.726 1000.72Z" stroke="#109D58" stroke-width="3"/>
<path d="M111 930L34.5 957.713V902.287L111 930Z" fill="#E93736"/>
<ellipse cx="1457.5" cy="262.5" rx="69.5" ry="88.5" fill="#FABC05" fill-opacity="0.88"/>
<path d="M9.5 623C195.084 569.101 301 871.796 443 756.613C585 641.43 419.372 926.594 766.5 1023" stroke="black" stroke-opacity="0.5"/>
<path d="M-37 624.494C148.584 570.595 254.5 873.29 396.5 758.107C538.5 642.924 372.872 928.088 720 1024.49" stroke="black" stroke-opacity="0.5"/>
<path d="M-27 886L54.75 831.44V940.56L-27 886Z" fill="#4286F5"/>
<path d="M441.425 1105.37L268.685 1023.11L398.607 1000.01L441.425 1105.37Z" stroke="#E93736" stroke-width="2"/>
<path d="M226.5 954L258.11 991.5H194.89L226.5 954Z" fill="#FABC05"/>
<path d="M1381.85 918.88L1439.34 945.559L1339.16 965.725L1381.85 918.88Z" fill="#E93736"/>
<path d="M105.372 958.436L206.155 976.621L162.993 1030.07L105.372 958.436Z" fill="#109D58"/>
<path d="M1247.71 935.542L1360.01 943.223L1290.52 1023.27L1247.71 935.542Z" fill="#109D58"/>
<path d="M215.865 889.912L176.286 938.929L156.215 891.818L215.865 889.912Z" stroke="#4286F5" stroke-width="3"/>
</g>
<defs>
<clipPath id="clip0_45_649">
<rect width="1440" height="1024" fill="white"/>
</clipPath>
</defs>
</svg>
