<svg width="515" height="145" viewBox="0 0 515 145" fill="none" xmlns="http://www.w3.org/2000/svg">
<path d="M39.411 40.7106C33.6591 40.7106 29.931 42.9475 29.931 47.3146C29.931 56.475 55.8145 62.653 55.8145 79.163C55.8145 92.797 43.2456 101.318 22.7945 101.318C12.7819 101.318 10.2256 100.04 1.06516 100.04C3.51503 91.0928 3.9411 87.0452 1.49123 78.0978C4.79323 83.5301 11.5037 85.98 16.9361 85.98C22.901 85.98 26.3095 83.3171 26.3095 80.1216C26.3095 70.4287 2.44987 65.7419 2.44987 48.1668C2.44987 34.3197 12.8885 25.3723 33.02 25.3723C43.0325 25.3723 45.5889 26.757 54.7493 26.757C52.2994 35.5979 51.9799 39.6455 54.3232 48.5928C50.9147 43.267 45.3759 40.7106 39.411 40.7106ZM149.568 100.253C152.763 75.7545 152.763 51.2557 149.568 26.757C157.343 28.8874 168.421 28.8874 176.197 26.757C173.001 51.2557 173.001 75.7545 176.197 100.253C168.421 98.1229 157.343 98.1229 149.568 100.253ZM183.546 100.253C186.742 75.7545 186.742 51.2557 183.546 26.757C191.322 28.8874 202.4 28.8874 210.176 26.757C206.98 51.2557 206.98 75.7545 210.176 100.253C202.4 98.1229 191.322 98.1229 183.546 100.253ZM176.197 26.757C176.729 45.7169 192.174 68.7244 197.713 95.7795C193.559 95.2469 187.807 99.6141 183.546 100.253C183.44 84.7018 164.693 48.3798 161.711 30.2721C165.865 30.8046 171.936 27.3961 176.197 26.757ZM263.313 41.1367C245.525 41.1367 242.542 81.9324 262.461 81.6128C270.023 81.5063 274.391 75.861 275.562 70.8547C285.255 70.8547 284.51 101.318 255.431 101.318C234.554 101.318 225.074 84.3823 225.074 63.5051C225.074 42.6279 237.536 25.6919 255.431 25.6919C264.165 25.6919 267.893 26.9701 275.882 26.9701C273.751 36.0239 273.432 40.0715 275.562 49.1254C272.58 43.6931 268.426 41.1367 263.313 41.1367Z" fill="#2B65C3"/>
<path d="M59.1958 120.795C59.1958 120.795 66.8159 124.014 79.1986 118.654C91.5812 113.294 132.539 19.0792 143.017 11.5843C153.495 4.08948 245.888 11.5843 245.888 11.5843" stroke="#109D58" stroke-width="13.3145"/>
<path d="M87.7972 13.4393C82.7893 19.0148 79.7817 20.8821 72.855 17.0527C82.6169 48.9206 88.4439 65.614 99.7592 92.091L103.69 67.4663C95.2536 44.6102 91.357 32.4883 87.7972 13.4393Z" fill="#109D58"/>
<path d="M61.4711 129.209V112.657L40.9805 122.588L61.4711 129.209Z" fill="#FABC05" stroke="#FABC05" stroke-width="2.21909"/>
<path d="M241.335 1.52453V18.0767L261.826 8.14538L241.335 1.52453Z" fill="#FABC05" stroke="#FABC05" stroke-width="2.21909"/>
<path d="M347.639 68.2247C354.243 69.9289 360.953 69.9289 367.557 68.2247C367.025 72.3788 367.025 78.4502 367.557 82.6044C360.953 80.9001 354.243 80.9001 347.639 82.6044C348.171 78.4502 348.171 72.3788 347.639 68.2247ZM321.968 98.5818C325.164 74.0831 337.946 49.5844 337.946 25.0856C345.828 27.216 370.433 27.216 377.463 25.0856C377.463 49.5844 390.245 74.0831 393.441 98.5818C385.665 96.4515 373.416 96.4515 365.64 98.5818C367.664 83.4565 361.699 54.4841 356.906 39.0393C356.799 38.8262 357.864 38.6132 357.758 38.4002C357.651 38.6132 358.716 38.8262 358.61 39.0393C353.817 54.4841 347.745 83.4565 349.769 98.5818C341.993 96.4515 329.744 96.4515 321.968 98.5818ZM408.396 98.5818C411.592 74.0831 411.592 49.5844 408.396 25.0856C416.172 27.216 427.249 27.216 435.025 25.0856C431.83 49.5844 431.83 74.0831 435.025 98.5818C427.249 96.4515 416.172 96.4515 408.396 98.5818ZM449.887 25.0856C462.776 27.216 492.707 27.216 505.702 25.0856C504.53 29.2398 504.53 36.9089 505.702 41.0631C499.311 39.9979 494.305 39.5718 488.659 39.7849C488.659 39.8914 489.725 37.7611 489.725 37.8676C488.02 57.8926 488.446 78.5567 491.109 98.5818C483.334 96.4515 472.256 96.4515 464.48 98.5818C467.143 78.5567 467.569 57.8926 465.865 37.8676C465.865 37.7611 466.93 39.8914 466.93 39.7849C461.285 39.5718 456.278 39.9979 449.887 41.0631C451.059 36.9089 451.059 29.2398 449.887 25.0856Z" fill="#E93736"/>
</svg>
